<svg width="954" height="220" viewBox="0 0 954 220" fill="none" xmlns="http://www.w3.org/2000/svg">
<path d="M635.216 209.416C634.491 210.696 633.499 211.699 632.24 212.424C631.003 213.128 629.563 213.48 627.92 213.48C626.32 213.48 624.891 213.096 623.632 212.328C622.373 211.539 621.381 210.472 620.656 209.128C619.952 207.784 619.6 206.301 619.6 204.68C619.6 203.08 619.952 201.619 620.656 200.296C621.381 198.952 622.373 197.896 623.632 197.128C624.891 196.339 626.32 195.944 627.92 195.944C629.627 195.944 631.12 196.339 632.4 197.128C633.701 197.896 634.715 198.984 635.44 200.392L633.296 201.96C632.08 199.784 630.32 198.696 628.016 198.696C626.928 198.696 625.957 198.952 625.104 199.464C624.251 199.955 623.579 200.659 623.088 201.576C622.619 202.472 622.384 203.507 622.384 204.68C622.384 206.515 622.907 207.987 623.952 209.096C624.997 210.184 626.352 210.728 628.016 210.728C629.104 210.728 630.075 210.483 630.928 209.992C631.781 209.501 632.485 208.797 633.04 207.88L635.216 209.416ZM652.782 196.296V198.92H646.254V213H643.598V198.92H637.038V196.296H652.782ZM671.431 196.296L667.367 212.36C666.919 214.195 666.343 215.603 665.639 216.584C664.956 217.587 663.975 218.301 662.695 218.728C661.436 219.176 659.687 219.4 657.447 219.4V216.744C659.282 216.744 660.583 216.68 661.351 216.552C662.119 216.424 662.716 216.104 663.143 215.592C663.591 215.101 663.986 214.237 664.327 213H660.519L655.975 196.296H658.855L662.887 211.112H664.807L668.583 196.296H671.431ZM695.726 219.4L693.07 219.368V213H675.694V219.368L673.038 219.4V210.312H676.334C677.016 210.312 677.518 210.248 677.838 210.12C678.158 209.992 678.392 209.693 678.542 209.224C678.712 208.733 678.798 207.944 678.798 206.856V196.296H692.046V210.312H695.726V219.4ZM689.39 210.312V198.92H681.454V206.856C681.454 208.307 681.315 209.459 681.038 210.312H689.39ZM714.689 196.296V213.032H712.033V199.784L701.953 213.032H698.913L698.945 213V196.296H701.569V209.544L711.617 196.296H714.689ZM733.401 196.296V213H730.713V206.536H725.817L720.921 213H717.881L722.905 206.344C719.556 205.853 717.881 204.232 717.881 201.48C717.881 199.709 718.521 198.408 719.801 197.576C721.103 196.723 723.055 196.296 725.657 196.296H733.401ZM730.713 198.952H725.657C723.801 198.952 722.489 199.176 721.721 199.624C720.975 200.051 720.601 200.669 720.601 201.48C720.601 202.269 720.975 202.867 721.721 203.272C722.468 203.677 723.78 203.88 725.657 203.88H730.713V198.952ZM753.944 204.456C756.739 204.712 758.136 206.077 758.136 208.552C758.136 210.003 757.603 211.155 756.536 212.008C755.469 212.84 753.731 213.256 751.32 213.256C748.803 213.256 747.053 212.776 746.072 211.816C745.091 210.856 744.6 209.459 744.6 207.624H747.416C747.416 208.392 747.523 208.989 747.736 209.416C747.949 209.821 748.333 210.109 748.888 210.28C749.443 210.451 750.253 210.536 751.32 210.536C753.987 210.536 755.32 209.619 755.32 207.784C755.32 206.333 753.987 205.608 751.32 205.608H749.368V203.016H751.32C752.536 203.016 753.443 202.867 754.04 202.568C754.637 202.248 754.936 201.683 754.936 200.872C754.936 200.125 754.637 199.581 754.04 199.24C753.443 198.899 752.536 198.728 751.32 198.728C749.869 198.728 748.867 198.931 748.312 199.336C747.779 199.741 747.512 200.509 747.512 201.64H744.888C744.888 199.933 745.368 198.579 746.328 197.576C747.309 196.573 748.973 196.072 751.32 196.072C753.368 196.072 754.915 196.467 755.96 197.256C757.005 198.045 757.528 199.048 757.528 200.264C757.528 201.288 757.187 202.131 756.504 202.792C755.843 203.432 754.989 203.816 753.944 203.944V204.456ZM769.664 196.296C771.669 196.296 773.141 196.637 774.08 197.32C775.04 198.003 775.52 198.888 775.52 199.976C775.52 201.021 775.179 201.864 774.496 202.504C773.835 203.144 772.971 203.539 771.904 203.688V204.168C773.461 204.317 774.72 204.776 775.68 205.544C776.64 206.291 777.12 207.283 777.12 208.52C777.12 209.928 776.501 211.027 775.264 211.816C774.048 212.605 772.181 213 769.664 213H761.6V196.296H769.664ZM769.664 202.76C770.731 202.76 771.531 202.621 772.064 202.344C772.619 202.045 772.896 201.544 772.896 200.84C772.896 200.136 772.619 199.645 772.064 199.368C771.531 199.091 770.731 198.952 769.664 198.952H764.288V202.76H769.664ZM769.664 210.28C771.349 210.28 772.544 210.056 773.248 209.608C773.952 209.16 774.304 208.541 774.304 207.752C774.304 206.963 773.952 206.365 773.248 205.96C772.544 205.533 771.349 205.32 769.664 205.32H764.288V210.28H769.664ZM794.369 196.296L790.305 212.36C789.857 214.195 789.281 215.603 788.577 216.584C787.894 217.587 786.913 218.301 785.633 218.728C784.374 219.176 782.625 219.4 780.385 219.4V216.744C782.219 216.744 783.521 216.68 784.289 216.552C785.057 216.424 785.654 216.104 786.081 215.592C786.529 215.101 786.923 214.237 787.265 213H783.457L778.913 196.296H781.793L785.825 211.112H787.745L791.521 196.296H794.369ZM813.313 196.296L807.233 204.648L813.313 213H810.209L805.089 205.96H800.193V213H797.569V196.296H800.193V203.304H805.121L810.209 196.296H813.313ZM823.265 213.48C821.665 213.48 820.225 213.085 818.945 212.296C817.686 211.507 816.694 210.44 815.969 209.096C815.265 207.731 814.913 206.237 814.913 204.616C814.913 203.016 815.265 201.544 815.969 200.2C816.694 198.856 817.686 197.8 818.945 197.032C820.225 196.243 821.665 195.848 823.265 195.848C824.843 195.848 826.262 196.243 827.521 197.032C828.801 197.8 829.793 198.856 830.497 200.2C831.201 201.544 831.553 203.016 831.553 204.616C831.553 206.259 831.201 207.752 830.497 209.096C829.793 210.44 828.801 211.507 827.521 212.296C826.262 213.085 824.843 213.48 823.265 213.48ZM823.265 210.76C824.331 210.76 825.281 210.504 826.113 209.992C826.966 209.48 827.627 208.765 828.097 207.848C828.587 206.909 828.833 205.843 828.833 204.648C828.833 203.453 828.587 202.397 828.097 201.48C827.627 200.563 826.966 199.848 826.113 199.336C825.281 198.824 824.331 198.568 823.265 198.568C822.177 198.568 821.206 198.824 820.353 199.336C819.521 199.848 818.859 200.563 818.369 201.48C817.899 202.397 817.665 203.453 817.665 204.648C817.665 205.843 817.899 206.909 818.369 207.848C818.859 208.765 819.521 209.48 820.353 209.992C821.206 210.504 822.177 210.76 823.265 210.76ZM843.132 204.456C845.926 204.712 847.324 206.077 847.324 208.552C847.324 210.003 846.79 211.155 845.724 212.008C844.657 212.84 842.918 213.256 840.508 213.256C837.99 213.256 836.241 212.776 835.26 211.816C834.278 210.856 833.788 209.459 833.788 207.624H836.604C836.604 208.392 836.71 208.989 836.924 209.416C837.137 209.821 837.521 210.109 838.076 210.28C838.63 210.451 839.441 210.536 840.508 210.536C843.174 210.536 844.508 209.619 844.508 207.784C844.508 206.333 843.174 205.608 840.508 205.608H838.556V203.016H840.508C841.724 203.016 842.63 202.867 843.228 202.568C843.825 202.248 844.124 201.683 844.124 200.872C844.124 200.125 843.825 199.581 843.228 199.24C842.63 198.899 841.724 198.728 840.508 198.728C839.057 198.728 838.054 198.931 837.5 199.336C836.966 199.741 836.7 200.509 836.7 201.64H834.076C834.076 199.933 834.556 198.579 835.516 197.576C836.497 196.573 838.161 196.072 840.508 196.072C842.556 196.072 844.102 196.467 845.148 197.256C846.193 198.045 846.716 199.048 846.716 200.264C846.716 201.288 846.374 202.131 845.692 202.792C845.03 203.432 844.177 203.816 843.132 203.944V204.456ZM856.682 195.976C859.114 195.976 860.97 196.637 862.25 197.96C863.53 199.261 864.17 200.979 864.17 203.112V213H861.514L861.994 207.912H861.45C860.98 209.768 860.212 211.155 859.146 212.072C858.079 212.989 856.778 213.448 855.242 213.448C853.172 213.448 851.647 212.979 850.666 212.04C849.684 211.101 849.194 209.907 849.194 208.456C849.194 206.429 849.962 204.979 851.498 204.104C853.034 203.229 855.284 202.792 858.25 202.792H861.578C861.514 201.512 861.034 200.52 860.138 199.816C859.242 199.091 858.09 198.728 856.682 198.728C855.551 198.728 854.623 198.984 853.898 199.496C853.172 200.008 852.511 200.765 851.914 201.768L849.674 200.136C850.527 198.835 851.487 197.821 852.554 197.096C853.642 196.349 855.018 195.976 856.682 195.976ZM855.434 210.696C857.098 210.696 858.431 210.173 859.434 209.128C860.436 208.061 861.087 206.685 861.386 205H858.25C856.095 205 854.495 205.256 853.45 205.768C852.404 206.259 851.882 207.059 851.882 208.168C851.882 208.936 852.18 209.555 852.778 210.024C853.375 210.472 854.26 210.696 855.434 210.696ZM883.438 196.296V213H880.782V198.92H870.35V213H867.694V196.296H883.438ZM902.72 196.296V213.032H900.064V199.784L889.984 213.032H886.944L886.976 213V196.296H889.6V209.544L899.648 196.296H902.72ZM921.529 209.416C920.803 210.696 919.811 211.699 918.553 212.424C917.315 213.128 915.875 213.48 914.233 213.48C912.633 213.48 911.203 213.096 909.945 212.328C908.686 211.539 907.694 210.472 906.969 209.128C906.265 207.784 905.913 206.301 905.913 204.68C905.913 203.08 906.265 201.619 906.969 200.296C907.694 198.952 908.686 197.896 909.945 197.128C911.203 196.339 912.633 195.944 914.233 195.944C915.939 195.944 917.433 196.339 918.713 197.128C920.014 197.896 921.027 198.984 921.753 200.392L919.609 201.96C918.393 199.784 916.633 198.696 914.329 198.696C913.241 198.696 912.27 198.952 911.417 199.464C910.563 199.955 909.891 200.659 909.401 201.576C908.931 202.472 908.697 203.507 908.697 204.68C908.697 206.515 909.219 207.987 910.265 209.096C911.31 210.184 912.665 210.728 914.329 210.728C915.417 210.728 916.387 210.483 917.241 209.992C918.094 209.501 918.798 208.797 919.353 207.88L921.529 209.416ZM940.72 196.296V213.032H938.064V199.784L927.984 213.032H924.944L924.976 213V196.296H927.6V209.544L937.648 196.296H940.72Z" fill="white"/>
<path d="M65.2696 33.7429C89.1662 33.7429 106.646 39.6065 117.709 51.3335C128.883 63.0606 134.47 79.1023 134.47 99.4587C134.47 119.926 128.883 136.244 117.709 148.414C106.535 160.472 89.0555 166.502 65.2696 166.502H20.2974V33.7429H47.679V33.9089L65.2696 33.7429ZM65.2696 138.954C74.2308 138.844 81.6985 137.682 87.6726 135.47C93.7574 133.146 98.5146 129.108 101.944 123.355C105.374 117.602 107.089 109.637 107.089 99.4587C107.089 85.2977 103.493 75.3961 96.302 69.7538C89.1109 64.1116 78.7667 61.2904 65.2696 61.2904H47.679V139.12L65.2696 138.954ZM262.431 65.2732V166.502H234.22L239.198 131.155H235.879C234.552 142.661 232.118 151.179 228.577 156.711C225.148 162.132 220.888 165.562 215.799 167C210.821 168.438 204.017 169.157 195.388 169.157C185.32 169.157 177.023 167.11 170.495 163.017C164.079 158.813 159.211 152.009 155.892 142.605C152.684 133.202 151.079 120.7 151.079 105.101V65.2732H178.295V105.101C178.295 117.713 180.231 126.84 184.103 132.482C188.086 138.125 195.166 140.946 205.345 140.946C214.97 140.946 222.161 137.793 226.918 131.487C231.786 125.181 234.22 116.385 234.22 105.101V65.2732H262.431ZM312.341 65.1073L307.363 100.62H311.843C317.154 75.2854 331.37 62.618 354.492 62.618C377.504 62.618 388.401 75.2854 387.184 100.62H391.665C396.975 75.2854 411.191 62.618 434.314 62.618C442.611 62.618 449.47 64.4435 454.891 68.0943C460.312 71.6346 464.516 78.1066 467.503 87.5103C470.491 96.8035 471.984 109.858 471.984 126.674V166.502H444.768V126.674C444.768 114.283 442.943 105.212 439.292 99.4587C435.752 93.7058 429.667 90.8293 421.038 90.8293C411.413 90.8293 404.166 93.9823 399.298 100.288C394.541 106.594 392.163 115.39 392.163 126.674V166.502H364.947V126.674C364.947 114.283 363.122 105.212 359.471 99.4587C355.931 93.7058 349.846 90.8293 341.216 90.8293C331.591 90.8293 324.345 93.9823 319.477 100.288C314.72 106.594 312.341 115.39 312.341 126.674V166.502H284.13V65.1073H312.341ZM516.694 124.351C518.022 129.661 520.843 133.921 525.158 137.129C529.583 140.337 535.115 141.942 541.753 141.942C553.922 141.942 563.658 137.682 570.96 129.163L588.882 140.946C583.904 150.682 577.266 157.817 568.968 162.353C560.671 166.779 551.599 168.991 541.753 168.991C532.459 168.991 523.719 166.668 515.533 162.021C507.456 157.264 500.929 150.903 495.951 142.937C491.083 134.972 488.649 126.287 488.649 116.883C488.649 107.59 491.083 98.9608 495.951 90.9953C500.929 83.0297 507.512 76.7237 515.699 72.0771C523.885 67.3199 532.57 64.9413 541.753 64.9413C551.378 64.9413 559.952 67.3752 567.475 72.2431C574.998 77.0002 580.861 83.8595 585.065 92.8207C589.269 101.782 591.316 112.292 591.205 124.351H516.694ZM541.753 91.4931C535.778 91.4931 530.634 93.042 526.319 96.1397C522.115 99.2374 519.128 103.165 517.358 107.922H564.985C563.326 102.612 560.283 98.5736 555.858 95.8078C551.544 92.9313 546.842 91.4931 541.753 91.4931ZM674.806 62.618C684.873 62.618 693.116 64.72 699.532 68.9241C706.06 73.0175 710.927 79.7661 714.136 89.1698C717.455 98.5736 719.114 111.075 719.114 126.674V166.502H691.899V126.674C691.899 114.062 689.907 104.935 685.924 99.2927C682.052 93.6504 675.027 90.8293 664.849 90.8293C655.224 90.8293 647.977 93.9823 643.11 100.288C638.352 106.594 635.974 115.39 635.974 126.674V166.502H607.763V65.2732H635.974L630.995 100.62H634.314C635.642 89.1145 638.021 80.6511 641.45 75.2301C644.99 69.6985 649.25 66.2136 654.228 64.7754C659.317 63.3371 666.176 62.618 674.806 62.618ZM835.199 65.2732L799.354 104.769L835.199 166.502H807.818L784.253 121.53L769.815 137.461V166.502H742.434V33.7429H769.815V104.769L807.818 65.2732H835.199ZM894.671 168.991C885.267 168.991 876.638 166.613 868.783 161.855C861.039 156.988 854.899 150.46 850.363 142.273C845.827 134.087 843.559 125.125 843.559 115.39C843.559 105.875 845.827 97.0801 850.363 89.0039C854.899 80.8171 861.094 74.3451 868.949 69.5879C876.804 64.72 885.378 62.2861 894.671 62.2861C903.964 62.2861 912.483 64.72 920.227 69.5879C927.972 74.3451 934.112 80.8171 938.648 89.0039C943.183 97.0801 945.451 105.875 945.451 115.39C945.451 125.125 943.183 134.087 938.648 142.273C934.112 150.46 927.972 156.988 920.227 161.855C912.483 166.613 903.964 168.991 894.671 168.991ZM894.505 141.776C901.807 141.776 907.56 139.286 911.764 134.308C915.968 129.329 918.07 123.079 918.07 115.556C918.07 108.143 915.968 101.948 911.764 96.9694C907.56 91.991 901.807 89.5017 894.505 89.5017C887.314 89.5017 881.561 92.0463 877.247 97.1354C873.042 102.114 870.94 108.254 870.94 115.556C870.94 122.968 873.042 129.219 877.247 134.308C881.561 139.286 887.314 141.776 894.505 141.776Z" fill="#EE3F32"/>
<rect x="8" y="34" width="7" height="133" fill="#EE3F32"/>
<path d="M0 37C0 35.3431 1.34315 34 3 34V167C1.34315 167 0 165.657 0 164V37Z" fill="#EE3F32"/>
</svg>
