<svg width="2309" height="975" viewBox="0 0 2309 975" fill="none" xmlns="http://www.w3.org/2000/svg">
<path opacity="0.0322581" d="M1542.13 11.7199C1542.13 11.7199 1615.15 419.311 1374.74 517.488C1104.75 627.742 854.393 289.291 655.83 373.648C459.608 457.01 858.448 670.61 676.68 770.111C499.411 867.15 320.142 631.204 83.5423 727.822" stroke="white" stroke-width="1.25421"/>
<path opacity="0.0645161" d="M1570.93 23.5713C1570.93 23.5713 1634.31 431.976 1391.57 527.026C1118.97 633.768 876.623 292.199 676.063 373.973C477.868 454.782 871.658 673.451 687.535 770.581C507.97 865.307 334.281 627.125 95.3935 720.666" stroke="white" stroke-width="1.25421"/>
<path opacity="0.0967742" d="M1599.53 35.5661C1599.53 35.5661 1653.25 444.66 1408.26 536.554C1133.14 639.752 898.864 295.169 696.369 374.334C496.261 452.566 884.882 676.238 698.46 770.966C516.653 863.35 348.596 623.006 107.495 713.441" stroke="white" stroke-width="1.25421"/>
<path opacity="0.129032" d="M1627.93 47.702C1627.93 47.702 1671.98 457.36 1424.81 546.07C1147.24 645.694 921.121 298.201 716.752 374.733C514.792 450.364 898.125 678.971 709.461 771.269C525.468 861.283 363.095 618.849 119.852 706.151" stroke="white" stroke-width="1.25421"/>
<path opacity="0.16129" d="M1656.13 59.9757C1656.13 59.9757 1690.49 470.073 1441.22 555.573C1161.29 651.59 943.389 301.294 737.208 375.171C533.457 448.177 911.385 681.649 720.537 771.489C534.413 859.105 377.773 614.656 132.464 698.798" stroke="white" stroke-width="1.25421"/>
<path opacity="0.193548" d="M1684.12 72.385C1684.12 72.385 1708.78 482.797 1457.49 565.06C1175.29 657.443 965.665 304.449 757.735 375.648C552.256 446.007 924.665 684.274 731.69 771.628C543.492 856.82 392.633 610.43 145.332 691.387" stroke="white" stroke-width="1.25421"/>
<path opacity="0.225806" d="M1711.89 84.9271C1711.89 84.9271 1726.85 495.529 1473.61 574.53C1189.22 663.25 987.948 307.667 778.333 376.166C571.188 443.857 937.964 686.845 742.922 771.686C552.707 854.428 407.675 606.172 158.457 683.919" stroke="white" stroke-width="1.25421"/>
<path opacity="0.258065" d="M1739.46 97.599C1739.46 97.599 1744.7 508.265 1489.59 583.981C1203.1 669.01 1010.24 310.946 799.002 376.724C590.254 441.726 951.285 689.362 754.235 771.665C562.062 851.932 422.901 601.885 171.842 676.399" stroke="white" stroke-width="1.25421"/>
<path opacity="0.290323" d="M1766.8 110.398C1766.8 110.398 1762.33 521.004 1505.43 593.411C1216.93 674.724 1032.53 314.288 819.739 377.325C609.453 439.619 964.629 691.827 765.63 771.567C571.557 849.333 438.309 597.573 185.487 668.83" stroke="white" stroke-width="1.25421"/>
<path opacity="0.322581" d="M1793.93 123.322C1793.93 123.322 1779.75 533.742 1521.13 602.818C1230.7 680.391 1054.83 317.692 840.546 377.969C628.785 437.535 977.998 694.239 777.112 771.391C581.198 846.634 453.904 593.236 199.394 661.215" stroke="white" stroke-width="1.25421"/>
<path opacity="0.354839" d="M1820.84 136.367C1820.84 136.367 1796.95 546.477 1536.69 612.2C1244.43 686.009 1077.14 321.159 861.421 378.657C648.25 435.478 991.393 696.598 788.681 771.14C590.986 843.836 469.685 588.878 213.565 653.558" stroke="white" stroke-width="1.25421"/>
<path opacity="0.387097" d="M1847.52 149.531C1847.52 149.531 1813.92 559.205 1552.12 621.557C1258.1 691.578 1099.44 324.687 882.363 379.39C667.846 433.448 1004.82 698.906 800.338 770.813C600.922 840.941 485.652 584.5 228 645.862" stroke="white" stroke-width="1.25421"/>
<path opacity="0.419355" d="M1873.96 162.811C1873.96 162.811 1830.68 571.924 1567.4 630.885C1271.73 697.098 1121.74 328.278 903.366 380.168C687.569 431.447 1018.26 701.161 812.083 770.413C611.007 837.951 501.801 580.106 242.696 638.13" stroke="white" stroke-width="1.25421"/>
<path opacity="0.451613" d="M1900.18 176.203C1900.18 176.203 1847.22 584.631 1582.54 640.183C1285.3 702.568 1144.04 331.932 924.438 380.993C707.426 429.476 1031.74 703.366 823.923 769.941C621.247 834.868 518.14 575.697 257.66 630.366" stroke="white" stroke-width="1.25421"/>
<path opacity="0.483871" d="M1926.17 189.704C1926.17 189.704 1863.54 597.323 1597.55 649.449C1298.83 707.987 1166.33 335.647 945.569 381.865C727.409 427.538 1045.25 705.519 835.854 769.397C631.641 831.694 534.663 571.276 272.889 622.574" stroke="white" stroke-width="1.25421"/>
<path opacity="0.516129" d="M1951.91 203.312C1951.91 203.312 1879.65 609.998 1612.42 658.682C1312.31 713.354 1188.62 339.424 966.765 382.785C747.523 425.635 1058.79 707.622 847.882 768.783C642.195 828.431 551.375 566.845 288.386 614.756" stroke="white" stroke-width="1.25421"/>
<path opacity="0.548387" d="M1977.42 217.024C1977.42 217.024 1895.54 622.653 1627.15 667.88C1325.75 718.67 1210.91 343.264 988.021 383.754C767.763 423.767 1072.36 709.675 860.007 768.101C652.907 825.081 568.274 562.407 304.15 606.916" stroke="white" stroke-width="1.25421"/>
<path opacity="0.580645" d="M2002.69 230.836C2002.69 230.836 1911.21 635.284 1641.75 677.04C1339.15 723.934 1233.18 347.165 1009.34 384.773C788.131 421.937 1085.97 711.678 872.23 767.351C663.781 821.647 585.361 557.964 320.182 599.058" stroke="white" stroke-width="1.25421"/>
<path opacity="0.612903" d="M2027.71 244.746C2027.71 244.746 1926.67 647.889 1656.22 686.162C1352.5 729.144 1255.45 351.129 1030.71 385.841C808.625 420.145 1099.61 713.631 884.555 766.535C674.82 818.129 602.637 553.519 336.484 591.185" stroke="white" stroke-width="1.25421"/>
<path opacity="0.645161" d="M2052.49 258.75C2052.49 258.75 1941.91 660.466 1670.55 695.244C1365.82 734.301 1277.7 355.154 1052.14 386.962C829.243 418.395 1113.29 715.537 896.98 765.654C686.024 814.531 620.098 549.074 353.052 583.301" stroke="white" stroke-width="1.25421"/>
<path opacity="0.677419" d="M2077.01 272.844C2077.01 272.844 1956.93 673.011 1684.75 704.284C1379.09 739.405 1299.94 359.241 1073.63 388.134C849.985 416.686 1127.01 717.394 909.508 764.71C697.394 810.855 637.748 544.632 369.89 575.409" stroke="white" stroke-width="1.25421"/>
<path opacity="0.709677" d="M2101.29 287.026C2101.29 287.026 1971.74 685.522 1698.82 713.28C1392.33 744.453 1322.17 363.388 1095.17 389.358C870.852 415.022 1140.76 719.203 922.144 763.703C708.936 807.102 655.587 540.194 386.999 567.512" stroke="white" stroke-width="1.25421"/>
<path opacity="0.741935" d="M2125.32 301.293C2125.32 301.293 1986.34 697.995 1712.76 722.231C1405.53 749.447 1344.38 367.598 1116.77 390.636C891.839 413.402 1154.56 720.965 934.884 762.636C720.648 803.276 673.611 535.764 404.376 559.614" stroke="white" stroke-width="1.25421"/>
<path opacity="0.774194" d="M2149.09 315.64C2149.09 315.64 2000.72 710.429 1726.57 731.134C1418.69 754.385 1366.58 371.867 1138.42 391.967C912.949 411.83 1168.39 722.68 947.733 761.509C732.535 799.377 691.826 531.343 422.024 551.719" stroke="white" stroke-width="1.25421"/>
<path opacity="0.806452" d="M2172.6 330.066C2172.6 330.066 2014.9 722.821 1740.25 739.989C1431.82 759.268 1388.75 376.198 1160.12 393.354C934.176 410.307 1182.27 724.349 960.69 760.324C744.594 795.409 710.224 526.934 439.939 543.829" stroke="white" stroke-width="1.25421"/>
<path opacity="0.83871" d="M2195.85 344.566C2195.85 344.566 2028.86 735.168 1753.81 748.793C1444.92 764.094 1410.91 380.589 1181.87 394.795C955.522 408.833 1196.19 725.972 973.757 759.083C756.83 791.374 728.81 522.54 458.123 535.949" stroke="white" stroke-width="1.25421"/>
<path opacity="0.870968" d="M2218.85 359.137C2218.85 359.137 2042.61 747.467 1767.23 757.545C1457.98 768.864 1433.05 385.04 1203.67 396.292C976.988 407.411 1210.15 727.551 986.938 757.787C769.246 787.274 747.584 518.163 476.578 528.082" stroke="white" stroke-width="1.25421"/>
<path opacity="0.903226" d="M2241.58 373.775C2241.58 373.775 2056.16 759.714 1780.54 766.244C1471.02 773.576 1455.16 389.551 1225.51 397.845C998.568 406.041 1224.16 729.084 1000.23 756.436C781.84 783.111 766.544 513.805 495.301 520.231" stroke="white" stroke-width="1.25421"/>
<path opacity="0.935484" d="M2264.04 388.478C2264.04 388.478 2069.49 771.909 1793.72 774.887C1484.02 778.231 1477.25 394.122 1247.4 399.456C1020.26 404.727 1238.22 730.574 1013.64 755.034C794.615 778.888 785.688 509.469 514.292 512.399" stroke="white" stroke-width="1.25421"/>
<path opacity="0.967742" d="M2286.25 403.242C2286.25 403.242 2082.63 784.048 1806.78 783.474C1497 782.828 1499.31 398.752 1269.34 401.124C1042.07 403.468 1252.33 732.021 1027.16 753.58C807.574 774.606 805.02 505.156 533.552 504.591" stroke="white" stroke-width="1.25421"/>
<path d="M2308.19 417.592C2308.19 417.592 2095.57 796.084 1819.76 791.957C1510.02 787.323 1521.42 402.966 1291.41 402.379C1064.1 401.8 1266.56 733.324 1040.91 752.002C820.835 770.218 824.659 500.518 553.224 496.457" stroke="white" stroke-width="1.25421"/>
</svg>
